<mxfile host="app.diagrams.net" modified="2024-03-07T13:04:37.148Z" agent="Mozilla/5.0 (Windows NT 10.0; Win64; x64) AppleWebKit/537.36 (KHTML, like Gecko) Chrome/122.0.0.0 Safari/537.36" version="24.0.2" etag="OOLI1X-7qZpXWPN7exn3" type="device">
  <diagram id="oJkhb8QLReztkWU3WQiZ" name="Page-1">
    <mxGraphModel dx="3795" dy="1218" grid="1" gridSize="10" guides="1" tooltips="1" connect="1" arrows="1" fold="1" page="0" pageScale="1" pageWidth="850" pageHeight="1100" background="none" math="0" shadow="0">
      <root>
        <mxCell id="0" />
        <mxCell id="1" parent="0" />
        <mxCell id="node6" value="&lt;p style=&quot;margin:0px;margin-top:4px;text-align:center;&quot;&gt;&lt;b&gt;CTCBlockInfo&lt;/b&gt;&lt;/p&gt;&lt;hr size=&quot;1&quot;/&gt;&lt;p style=&quot;margin:0 0 0 4px;line-height:1.6;&quot;&gt;- speedLimit: int&lt;br/&gt;- switchLightState: boolean&lt;br/&gt;- divergingBlockOneID: int&lt;br/&gt;- blockID: int&lt;br/&gt;- occupied: boolean&lt;br/&gt;- convergingBlockID: int&lt;br/&gt;- crossingState: boolean&lt;br/&gt;~ map: CTCBlockSubjectMap&lt;br/&gt;- line: String&lt;br/&gt;- hasLight: boolean&lt;br/&gt;- hasCrossing: boolean&lt;br/&gt;- switchState: boolean&lt;br/&gt;- blockLength: int&lt;br/&gt;- underMaintenance: boolean&lt;br/&gt;- hasSwitchCon: boolean&lt;br/&gt;- divergingBlockTwoID: int&lt;br/&gt;- hasSwitchDiv: boolean&lt;/p&gt;&lt;hr size=&quot;1&quot;/&gt;&lt;p style=&quot;margin:0 0 0 4px;line-height:1.6;&quot;&gt;~ getBlockID(): int&lt;br/&gt;~ getSwitchStateString(): String&lt;br/&gt;~ setCrossingState(boolean): void&lt;br/&gt;~ setSwitchLightState(boolean): void&lt;br/&gt;~ getHasCrossing(): boolean&lt;br/&gt;~ setSwitchState(boolean): void&lt;br/&gt;~ getCrossingState(): boolean&lt;br/&gt;+ getSwitchState(): boolean&lt;br/&gt;~ getOccupied(): boolean&lt;br/&gt;~ getSpeedLimit(): int&lt;br/&gt;~ getSwitchLightState(): boolean&lt;br/&gt;~ setUnderMaintenance(boolean): void&lt;br/&gt;~ getBlockLength(): int&lt;br/&gt;~ getUnderMaintenance(): boolean&lt;br/&gt;~ getLine(): String&lt;br/&gt;~ setOccupied(boolean): void&lt;br/&gt;~ getHasLight(): boolean&lt;br/&gt;~ getHasSwitchDiv(): boolean&lt;br/&gt;~ getHasSwitchCon(): boolean&lt;/p&gt;" style="verticalAlign=top;align=left;overflow=fill;fontSize=14;fontFamily=Helvetica;html=1;rounded=0;shadow=0;comic=0;labelBackgroundColor=none;strokeWidth=1;movable=1;resizable=1;rotatable=1;deletable=1;editable=1;locked=0;connectable=1;" parent="1" vertex="1">
          <mxGeometry x="-1761" y="61" width="273" height="905" as="geometry" />
        </mxCell>
        <mxCell id="node8" value="&lt;p style=&quot;margin:0px;margin-top:4px;text-align:center;&quot;&gt;&lt;b&gt;CTCBlockSubject&lt;/b&gt;&lt;/p&gt;&lt;hr size=&quot;1&quot;/&gt;&lt;p style=&quot;margin:0 0 0 4px;line-height:1.6;&quot;&gt;~ blockInfo: CTCBlockInfo&lt;br/&gt;- properties: ObservableHashMap&amp;lt;String, Property&amp;lt;?&amp;gt;&amp;gt;&lt;/p&gt;&lt;hr size=&quot;1&quot;/&gt;&lt;p style=&quot;margin:0 0 0 4px;line-height:1.6;&quot;&gt;+ getIntegerProperty(String): IntegerProperty&lt;br/&gt;~ hasLight(): boolean&lt;br/&gt;~ hasCrossing(): boolean&lt;br/&gt;+ getProperty(String): Property&amp;lt;?&amp;gt;&lt;br/&gt;~ getBlockInfo(): CTCBlockInfo&lt;br/&gt;+ getBooleanProperty(String): BooleanProperty&lt;br/&gt;+ updateStringProperty(String): void&lt;br/&gt;+ setProperty(String, Object): void&lt;br/&gt;+ getStringProperty(String): StringProperty&lt;/p&gt;" style="verticalAlign=top;align=left;overflow=fill;fontSize=14;fontFamily=Helvetica;html=1;rounded=0;shadow=0;comic=0;labelBackgroundColor=none;strokeWidth=1;movable=0;resizable=0;rotatable=0;deletable=0;editable=0;locked=1;connectable=0;" parent="1" vertex="1">
          <mxGeometry x="-2306" y="661" width="383" height="305" as="geometry" />
        </mxCell>
        <mxCell id="node3" value="&lt;p style=&quot;margin:0px;margin-top:4px;text-align:center;&quot;&gt;&lt;b&gt;CTCOfficeImpl&lt;/b&gt;&lt;/p&gt;&lt;hr size=&quot;1&quot;/&gt;&lt;p style=&quot;margin:0 0 0 4px;line-height:1.6;&quot;&gt;+ OFFICE: CTCOfficeImpl&lt;br/&gt;- autoMode: boolean&lt;br/&gt;- mode: int&lt;br/&gt;~ track: Map&amp;lt;String, ArrayList&amp;lt;CTCBlockSubject&amp;gt;&amp;gt;&lt;br/&gt;- manualMode: boolean&lt;br/&gt;- maintenanceMode: boolean&lt;br/&gt;- time: int&lt;br/&gt;- ticketSales: int&lt;br/&gt;+ scheduleLibrary: ScheduleLibrary&lt;/p&gt;&lt;hr size=&quot;1&quot;/&gt;&lt;p style=&quot;margin:0 0 0 4px;line-height:1.6;&quot;&gt;+ setSwitchState(boolean, int, boolean): void&lt;br/&gt;+ setCrossingState(boolean, int, boolean): void&lt;br/&gt;~ getAutoMode(): boolean&lt;br/&gt;~ setTime(int): void&lt;br/&gt;~ getManualMode(): boolean&lt;br/&gt;+ setBlockOccupancy(boolean, int, boolean): void&lt;br/&gt;+ getUnderMaintenance(boolean, int): boolean&lt;br/&gt;~ setMaintenanceMode(boolean): void&lt;br/&gt;+ getCrossingState(boolean, int): boolean&lt;br/&gt;+ getLightState(boolean, int): boolean&lt;br/&gt;~ getMode(): int&lt;br/&gt;~ setTicketSales(int): void&lt;br/&gt;+ getBlockOccupancy(boolean, int): boolean&lt;br/&gt;~ getTicketSales(): int&lt;br/&gt;~ getTime(): int&lt;br/&gt;~ setManualMode(boolean): void&lt;br/&gt;+ setLightState(boolean, int, boolean): void&lt;br/&gt;~ setMode(int): void&lt;br/&gt;~ setAutoMode(boolean): void&lt;br/&gt;~ setUnderMaintenance(boolean, int, boolean): void&lt;br/&gt;+ getSwitchState(boolean, int): boolean&lt;br/&gt;~ getMaintenanceMode(): boolean&lt;/p&gt;" style="verticalAlign=top;align=left;overflow=fill;fontSize=14;fontFamily=Helvetica;html=1;rounded=0;shadow=0;comic=0;labelBackgroundColor=none;strokeWidth=1;movable=1;resizable=1;rotatable=1;deletable=1;editable=1;locked=0;connectable=1;" parent="1" vertex="1">
          <mxGeometry y="110" width="354" height="785" as="geometry" />
        </mxCell>
        <mxCell id="node1" value="&lt;p style=&quot;margin:0px;margin-top:4px;text-align:center;&quot;&gt;&lt;b&gt;CTCOfficeManager&lt;/b&gt;&lt;/p&gt;&lt;hr size=&quot;1&quot;/&gt;&lt;p style=&quot;margin:0 0 0 4px;line-height:1.6;&quot;&gt;- arrivalTimeSelector: ComboBox&amp;lt;Integer&amp;gt;&lt;br/&gt;- mainSplit: SplitPane&lt;br/&gt;~ blockMap: CTCBlockSubjectMap&lt;br/&gt;- stopSelector: ComboBox&amp;lt;Integer&amp;gt;&lt;br/&gt;- scheduleTable: TableView&amp;lt;ScheduleFileSubject&amp;gt;&lt;br/&gt;- lineTrainSelector: ChoiceBox&amp;lt;Integer&amp;gt;&lt;br/&gt;- carNumberColumn: TableColumn&amp;lt;TrainScheduleSubject, Integer&amp;gt;&lt;br/&gt;- maintenanceToggle: Button&lt;br/&gt;- scheduleEditTable: TableView&amp;lt;TrainScheduleSubject&amp;gt;&lt;br/&gt;- switchStateColumn: TableColumn&amp;lt;CTCBlockSubject, String&amp;gt;&lt;br/&gt;- RemoveTrain: Button&lt;br/&gt;- trainStopSelector: ChoiceBox&amp;lt;Integer&amp;gt;&lt;br/&gt;- carsSelector: Spinner&amp;lt;Integer&amp;gt;&lt;br/&gt;- saveStopButton: Button&lt;br/&gt;- dispatchTimeSelector: ComboBox&amp;lt;Integer&amp;gt;&lt;br/&gt;~ maintenanceColors: Map&amp;lt;CTCBlockSubject, ObjectProperty&amp;lt;Paint&amp;gt;&amp;gt;&lt;br/&gt;- lineColumn: TableColumn&amp;lt;TrainScheduleSubject, String&amp;gt;&lt;br/&gt;- AddStop: Button&lt;br/&gt;- scheduleNameColumn: TableColumn&amp;lt;ScheduleFileSubject, String&amp;gt;&lt;br/&gt;- AddTrain: Button&lt;br/&gt;- DispatchButton: Button&lt;br/&gt;- mainAnchor: AnchorPane&lt;br/&gt;- arrivalTimeColumn: TableColumn&amp;lt;TrainScheduleSubject, Integer&amp;gt;&lt;br/&gt;- crossingStateColumn: TableColumn&amp;lt;CTCBlockSubject, Paint&amp;gt;&lt;br/&gt;- switchLightColumn: TableColumn&amp;lt;CTCBlockSubject, Paint&amp;gt;&lt;br/&gt;- trainIDSelector: ChoiceBox&amp;lt;Integer&amp;gt;&lt;br/&gt;- switchStateToggle: Button&lt;br/&gt;~ crossingColors: Map&amp;lt;CTCBlockSubject, ObjectProperty&amp;lt;Paint&amp;gt;&amp;gt;&lt;br/&gt;- departureTimeSelector: ComboBox&amp;lt;Integer&amp;gt;&lt;br/&gt;- selectScheduleButton: Button&lt;br/&gt;- stationBlockIDColumn: TableColumn&amp;lt;TrainScheduleSubject, Integer&amp;gt;&lt;br/&gt;- lineStopSelector: ChoiceBox&amp;lt;String&amp;gt;&lt;br/&gt;- stationStopSelector: ChoiceBox&amp;lt;Integer&amp;gt;&lt;br/&gt;- saveScheduleButton: Button&lt;br/&gt;~ scheduleLibrary: ScheduleLibrary&lt;br/&gt;- blockTable: TableView&amp;lt;CTCBlockSubject&amp;gt;&lt;br/&gt;- blockNumberColumn: TableColumn&amp;lt;CTCBlockSubject, Integer&amp;gt;&lt;br/&gt;- lineSelection: ComboBox&amp;lt;String&amp;gt;&lt;br/&gt;- switchLightToggle: Button&lt;br/&gt;- departureTimeColumn: TableColumn&amp;lt;TrainScheduleSubject, Integer&amp;gt;&lt;br/&gt;- saveTrainButton: Button&lt;br/&gt;- scheduleDateModColumn: TableColumn&amp;lt;ScheduleFileSubject, String&amp;gt;&lt;br/&gt;- blockSelection: ComboBox&amp;lt;Integer&amp;gt;&lt;br/&gt;- dispatchTimeColumn: TableColumn&amp;lt;TrainScheduleSubject, Integer&amp;gt;&lt;br/&gt;- RemoveStop: Button&lt;br/&gt;- underMaintenanceColumn: TableColumn&amp;lt;CTCBlockSubject, Paint&amp;gt;&lt;br/&gt;~ switchColors: Map&amp;lt;CTCBlockSubject, ObjectProperty&amp;lt;Paint&amp;gt;&amp;gt;&lt;br/&gt;- scheduledTrainColumn: TableColumn&amp;lt;TrainScheduleSubject, Integer&amp;gt;&lt;br/&gt;- crossingStateToggle: Button&lt;br/&gt;- scheduleSelector: ComboBox&amp;lt;String&amp;gt;&lt;br/&gt;- occupationLightColumn: TableColumn&amp;lt;CTCBlockSubject, Boolean&amp;gt;&lt;/p&gt;&lt;hr size=&quot;1&quot;/&gt;&lt;p style=&quot;margin:0 0 0 4px;line-height:1.6;&quot;&gt;- crossingColorListener(CTCBlockSubject): void&lt;br/&gt;- switchColorListener(CTCBlockSubject): void&lt;br/&gt;- maintenanceColorListener(CTCBlockSubject): void&lt;br/&gt;- setupMapChangeListener(): void&lt;br/&gt;- createColoredCircleCell(): TableCell&amp;lt;CTCBlockSubject, Paint&amp;gt;&lt;br/&gt;+ initialize(): void&lt;br/&gt;- toggleProperty(String): void&lt;/p&gt;" style="verticalAlign=top;align=left;overflow=fill;fontSize=14;fontFamily=Helvetica;html=1;rounded=0;shadow=0;comic=0;labelBackgroundColor=none;strokeWidth=1;movable=1;resizable=1;rotatable=1;deletable=1;editable=1;locked=0;connectable=1;" parent="1" vertex="1">
          <mxGeometry x="447" y="61" width="477" height="1439" as="geometry" />
        </mxCell>
        <mxCell id="node2" value="&lt;p style=&quot;margin:0px;margin-top:4px;text-align:center;&quot;&gt;&lt;b&gt;ScheduleFile&lt;/b&gt;&lt;/p&gt;&lt;hr size=&quot;1&quot;/&gt;&lt;p style=&quot;margin:0 0 0 4px;line-height:1.6;&quot;&gt;- multipleTrainSchedules: HashMap&amp;lt;Integer, TrainSchedule&amp;gt;&lt;br/&gt;- subject: ScheduleFileSubject&lt;br/&gt;- scheduleFileName: String&lt;br/&gt;- lastModified: String&lt;br/&gt;- multipleTrainScheduleSubjects: HashMap&amp;lt;Integer, TrainScheduleSubject&amp;gt;&lt;/p&gt;&lt;hr size=&quot;1&quot;/&gt;&lt;p style=&quot;margin:0 0 0 4px;line-height:1.6;&quot;&gt;+ getMultipleTrainScheduleSubjects(): HashMap&amp;lt;Integer, TrainScheduleSubject&amp;gt;&lt;br/&gt;+ removeTrainSchedule(int): void&lt;br/&gt;+ getScheduleFileName(): String&lt;br/&gt;+ getMultipleTrainSchedules(): HashMap&amp;lt;Integer, TrainSchedule&amp;gt;&lt;br/&gt;+ setLastModified(String): void&lt;br/&gt;+ getTrainSchedule(int): TrainSchedule&lt;br/&gt;+ putTrainSchedule(int, TrainSchedule): void&lt;br/&gt;+ setScheduleFileName(String): void&lt;br/&gt;+ getLastModified(): String&lt;/p&gt;" style="verticalAlign=top;align=left;overflow=fill;fontSize=14;fontFamily=Helvetica;html=1;rounded=0;shadow=0;comic=0;labelBackgroundColor=none;strokeWidth=1;movable=1;resizable=1;rotatable=1;deletable=1;editable=1;locked=0;connectable=1;" parent="1" vertex="1">
          <mxGeometry x="-788" y="61" width="532" height="377" as="geometry" />
        </mxCell>
        <mxCell id="node7" value="&lt;p style=&quot;margin:0px;margin-top:4px;text-align:center;&quot;&gt;&lt;b&gt;ScheduleFileSubject&lt;/b&gt;&lt;/p&gt;&lt;hr size=&quot;1&quot;/&gt;&lt;p style=&quot;margin:0 0 0 4px;line-height:1.6;&quot;&gt;- properties: ObservableHashMap&amp;lt;String, Property&amp;lt;?&amp;gt;&amp;gt;&lt;br/&gt;- schedule: ScheduleFile&lt;/p&gt;&lt;hr size=&quot;1&quot;/&gt;&lt;p style=&quot;margin:0 0 0 4px;line-height:1.6;&quot;&gt;+ getSchedule(): ScheduleFile&lt;br/&gt;+ setProperty(String, Object): void&lt;br/&gt;+ getProperty(String): Property&amp;lt;?&amp;gt;&lt;br/&gt;+ getStringProperty(String): StringProperty&lt;/p&gt;" style="verticalAlign=top;align=left;overflow=fill;fontSize=14;fontFamily=Helvetica;html=1;rounded=0;shadow=0;comic=0;labelBackgroundColor=none;strokeWidth=1;movable=1;resizable=1;rotatable=1;deletable=1;editable=1;locked=0;connectable=1;" parent="1" vertex="1">
          <mxGeometry x="-1276" y="253" width="383" height="185" as="geometry" />
        </mxCell>
        <mxCell id="node4" value="&lt;p style=&quot;margin:0px;margin-top:4px;text-align:center;&quot;&gt;&lt;b&gt;ScheduleLibrary&lt;/b&gt;&lt;/p&gt;&lt;hr size=&quot;1&quot;/&gt;&lt;p style=&quot;margin:0 0 0 4px;line-height:1.6;&quot;&gt;- INSTANCE: ScheduleLibrary&lt;/p&gt;&lt;hr size=&quot;1&quot;/&gt;&lt;p style=&quot;margin:0 0 0 4px;line-height:1.6;&quot;&gt;+ getInstance(): ScheduleLibrary&lt;br/&gt;+ getSubjects(): ObservableHashMap&amp;lt;String, ScheduleFileSubject&amp;gt;&lt;/p&gt;" style="verticalAlign=top;align=left;overflow=fill;fontSize=14;fontFamily=Helvetica;html=1;rounded=0;shadow=0;comic=0;labelBackgroundColor=none;strokeWidth=1;movable=1;resizable=1;rotatable=1;deletable=1;editable=1;locked=0;connectable=1;" parent="1" vertex="1">
          <mxGeometry x="-706" y="-171" width="450" height="122" as="geometry" />
        </mxCell>
        <mxCell id="node5" value="&lt;p style=&quot;margin:0px;margin-top:4px;text-align:center;&quot;&gt;&lt;b&gt;TrainSchedule&lt;/b&gt;&lt;/p&gt;&lt;hr size=&quot;1&quot;/&gt;&lt;p style=&quot;margin:0 0 0 4px;line-height:1.6;&quot;&gt;- trainID: int&lt;br/&gt;- carCount: int&lt;br/&gt;- stops: List&amp;lt;TrainStop&amp;gt;&lt;br/&gt;- dispatchTime: int&lt;br/&gt;~ subject: TrainScheduleSubject&lt;br/&gt;- line: String&lt;/p&gt;&lt;hr size=&quot;1&quot;/&gt;&lt;p style=&quot;margin:0 0 0 4px;line-height:1.6;&quot;&gt;+ updateStopArrivalTime(int, int): void&lt;br/&gt;+ updateStopAuthorityList(int, List&amp;lt;Integer&amp;gt;): void&lt;br/&gt;+ getStops(): List&amp;lt;TrainStop&amp;gt;&lt;br/&gt;+ getDestination(int): int&lt;br/&gt;+ updateStopBlockList(int, List&amp;lt;Integer&amp;gt;): void&lt;br/&gt;+ setTrainID(int): void&lt;br/&gt;+ setAuthority(int, int, int): void&lt;br/&gt;+ getLine(): String&lt;br/&gt;+ setCarCount(int): void&lt;br/&gt;+ printStops(): void&lt;br/&gt;+ addStop(int, int, int, List&amp;lt;Integer&amp;gt;, List&amp;lt;Integer&amp;gt;, List&amp;lt;Integer&amp;gt;): void&lt;br/&gt;+ getSubject(): TrainScheduleSubject&lt;br/&gt;+ setDestination(int, int): void&lt;br/&gt;+ setStops(List&amp;lt;TrainStop&amp;gt;): void&lt;br/&gt;+ setDispatchTime(int): void&lt;br/&gt;+ updateStop(int, TrainStop): void&lt;br/&gt;+ getStop(int): TrainStop&lt;br/&gt;+ updateStop(int, int, int, int, List&amp;lt;Integer&amp;gt;, List&amp;lt;Integer&amp;gt;, List&amp;lt;Integer&amp;gt;): void&lt;br/&gt;+ addStop(TrainStop): void&lt;br/&gt;+ getStopCount(): int&lt;br/&gt;+ updateStopDepartureTime(int, int): void&lt;br/&gt;+ setSpeed(int, int, int): void&lt;br/&gt;+ getDispatchTime(): int&lt;br/&gt;+ getCarCount(): int&lt;br/&gt;+ getTrainID(): int&lt;br/&gt;+ clearStops(): void&lt;br/&gt;+ updateStopSpeedList(int, List&amp;lt;Integer&amp;gt;): void&lt;br/&gt;+ removeStop(int): void&lt;br/&gt;+ setLine(String): void&lt;/p&gt;" style="verticalAlign=top;align=left;overflow=fill;fontSize=14;fontFamily=Helvetica;html=1;rounded=0;shadow=0;comic=0;labelBackgroundColor=none;strokeWidth=1;movable=1;resizable=1;rotatable=1;deletable=1;editable=1;locked=0;connectable=1;" parent="1" vertex="1">
          <mxGeometry x="-680" y="558" width="424" height="887" as="geometry" />
        </mxCell>
        <mxCell id="node9" value="&lt;p style=&quot;margin:0px;margin-top:4px;text-align:center;&quot;&gt;&lt;b&gt;TrainScheduleSubject&lt;/b&gt;&lt;/p&gt;&lt;hr size=&quot;1&quot;/&gt;&lt;p style=&quot;margin:0 0 0 4px;line-height:1.6;&quot;&gt;- properties: ObservableHashMap&amp;lt;String, Property&amp;lt;?&amp;gt;&amp;gt;&lt;br/&gt;+ schedule: TrainSchedule&lt;/p&gt;&lt;hr size=&quot;1&quot;/&gt;&lt;p style=&quot;margin:0 0 0 4px;line-height:1.6;&quot;&gt;+ setProperty(String, Object): void&lt;br/&gt;+ setIntegerProperty(String, int, Object): void&lt;br/&gt;+ getStringProperty(String): StringProperty&lt;br/&gt;+ getSchedule(): TrainSchedule&lt;br/&gt;+ getIntegerProperty(String, int): IntegerProperty&lt;br/&gt;+ getProperty(String): Property&amp;lt;?&amp;gt;&lt;br/&gt;+ getIntegerProperty(String): IntegerProperty&lt;/p&gt;" style="verticalAlign=top;align=left;overflow=fill;fontSize=14;fontFamily=Helvetica;html=1;rounded=0;shadow=0;comic=0;labelBackgroundColor=none;strokeWidth=1;movable=1;resizable=1;rotatable=1;deletable=1;editable=1;locked=0;connectable=1;" parent="1" vertex="1">
          <mxGeometry x="-1276" y="1188" width="383" height="257" as="geometry" />
        </mxCell>
        <mxCell id="node0" value="&lt;p style=&quot;margin:0px;margin-top:4px;text-align:center;&quot;&gt;&lt;b&gt;TrainStop&lt;/b&gt;&lt;/p&gt;&lt;hr size=&quot;1&quot;/&gt;&lt;p style=&quot;margin:0 0 0 4px;line-height:1.6;&quot;&gt;- arrivalTime: int&lt;br/&gt;- departureTime: int&lt;br/&gt;- authorityList: List&amp;lt;Integer&amp;gt;&lt;br/&gt;- stationBlockID: int&lt;br/&gt;- subject: TrainStopSubject&lt;br/&gt;- speedList: List&amp;lt;Integer&amp;gt;&lt;br/&gt;- routePath: List&amp;lt;Integer&amp;gt;&lt;/p&gt;&lt;hr size=&quot;1&quot;/&gt;&lt;p style=&quot;margin:0 0 0 4px;line-height:1.6;&quot;&gt;+ setSpeedList(List&amp;lt;Integer&amp;gt;): void&lt;br/&gt;+ updateBlockList(int, int): void&lt;br/&gt;+ getSubject(): TrainStopSubject&lt;br/&gt;+ setStationBlockID(int): void&lt;br/&gt;+ getStationBlockID(): int&lt;br/&gt;+ getSpeedList(): List&amp;lt;Integer&amp;gt;&lt;br/&gt;+ setArrivalTime(int): void&lt;br/&gt;+ setRoutePath(List&amp;lt;Integer&amp;gt;): void&lt;br/&gt;+ setDepartureTime(int): void&lt;br/&gt;+ updateSpeedList(int, int): void&lt;br/&gt;+ getDepartureTime(): int&lt;br/&gt;+ getArrivalTime(): int&lt;br/&gt;+ setAuthorityList(List&amp;lt;Integer&amp;gt;): void&lt;br/&gt;+ getAuthorityList(): List&amp;lt;Integer&amp;gt;&lt;br/&gt;+ updateAuthorityList(int, int): void&lt;br/&gt;+ getRoutePath(): List&amp;lt;Integer&amp;gt;&lt;/p&gt;" style="verticalAlign=top;align=left;overflow=fill;fontSize=14;fontFamily=Helvetica;html=1;rounded=0;shadow=0;comic=0;labelBackgroundColor=none;strokeWidth=1;movable=1;resizable=1;rotatable=1;deletable=1;editable=1;locked=0;connectable=1;" parent="1" vertex="1">
          <mxGeometry x="-525" y="1590" width="269" height="599" as="geometry" />
        </mxCell>
        <mxCell id="node10" value="&lt;p style=&quot;margin:0px;margin-top:4px;text-align:center;&quot;&gt;&lt;b&gt;TrainStopSubject&lt;/b&gt;&lt;/p&gt;&lt;hr size=&quot;1&quot;/&gt;&lt;p style=&quot;margin:0 0 0 4px;line-height:1.6;&quot;&gt;+ stop: TrainStop&lt;br/&gt;- properties: ObservableHashMap&amp;lt;String, Object&amp;gt;&lt;/p&gt;&lt;hr size=&quot;1&quot;/&gt;&lt;p style=&quot;margin:0 0 0 4px;line-height:1.6;&quot;&gt;+ setProperty(String, Object): void&lt;br/&gt;+ getProperty(String): Property&amp;lt;?&amp;gt;&lt;br/&gt;+ getIntegerProperty(String): Integer&lt;/p&gt;" style="verticalAlign=top;align=left;overflow=fill;fontSize=14;fontFamily=Helvetica;html=1;rounded=0;shadow=0;comic=0;labelBackgroundColor=none;strokeWidth=1;movable=1;resizable=1;rotatable=1;deletable=1;editable=1;locked=0;connectable=1;" parent="1" vertex="1">
          <mxGeometry x="-1238" y="2028" width="345" height="161" as="geometry" />
        </mxCell>
        <mxCell id="edge13" value="" style="html=1;rounded=1;edgeStyle=orthogonalEdgeStyle;dashed=1;startArrow=none;endArrow=openThin;endSize=12;strokeColor=#595959;exitX=0.000;exitY=0.500;exitDx=0;exitDy=0;entryX=1.000;entryY=0.500;entryDx=0;entryDy=0;" parent="1" source="node6" target="node8" edge="1">
          <mxGeometry width="50" height="50" relative="1" as="geometry">
            <Array as="points">
              <mxPoint x="-1842" y="514" />
              <mxPoint x="-1842" y="814" />
            </Array>
          </mxGeometry>
        </mxCell>
        <mxCell id="edge16" value="" style="html=1;rounded=1;edgeStyle=orthogonalEdgeStyle;dashed=0;startArrow=diamondThinstartSize=12;endArrow=openThin;endSize=12;strokeColor=#595959;exitX=1.000;exitY=0.549;exitDx=0;exitDy=0;entryX=0.000;entryY=0.848;entryDx=0;entryDy=0;movable=0;resizable=0;rotatable=0;deletable=0;editable=0;locked=1;connectable=0;" parent="1" source="node8" target="node6" edge="1">
          <mxGeometry width="50" height="50" relative="1" as="geometry">
            <Array as="points" />
          </mxGeometry>
        </mxCell>
        <mxCell id="edge5" value="" style="html=1;rounded=1;edgeStyle=orthogonalEdgeStyle;dashed=1;startArrow=none;endArrow=openThin;endSize=12;strokeColor=#595959;entryX=0.5;entryY=0;entryDx=0;entryDy=0;" parent="1" source="node3" target="node6" edge="1">
          <mxGeometry width="50" height="50" relative="1" as="geometry">
            <Array as="points">
              <mxPoint x="120" y="20" />
              <mxPoint x="-1624" y="20" />
            </Array>
          </mxGeometry>
        </mxCell>
        <mxCell id="edge14" value="" style="html=1;rounded=1;edgeStyle=orthogonalEdgeStyle;dashed=1;startArrow=none;endArrow=openThin;endSize=12;strokeColor=#595959;exitX=0.458;exitY=0.000;exitDx=0;exitDy=0;entryX=1.000;entryY=0.500;entryDx=0;entryDy=0;" parent="1" source="node3" target="node8" edge="1">
          <mxGeometry width="50" height="50" relative="1" as="geometry">
            <Array as="points">
              <mxPoint x="160" y="110" />
              <mxPoint x="160" />
              <mxPoint x="-1842" />
              <mxPoint x="-1842" y="814" />
            </Array>
          </mxGeometry>
        </mxCell>
        <mxCell id="edge8" value="" style="html=1;rounded=1;edgeStyle=orthogonalEdgeStyle;dashed=1;startArrow=none;endArrow=openThin;endSize=12;strokeColor=#595959;exitX=0.000;exitY=0.240;exitDx=0;exitDy=0;entryX=1.000;entryY=0.500;entryDx=0;entryDy=0;" parent="1" source="node3" target="node2" edge="1">
          <mxGeometry width="50" height="50" relative="1" as="geometry">
            <Array as="points" />
          </mxGeometry>
        </mxCell>
        <mxCell id="edge9" value="" style="html=1;rounded=1;edgeStyle=orthogonalEdgeStyle;dashed=1;startArrow=none;endArrow=openThin;endSize=12;strokeColor=#595959;entryX=0.5;entryY=0;entryDx=0;entryDy=0;" parent="1" source="node3" target="node7" edge="1">
          <mxGeometry width="50" height="50" relative="1" as="geometry">
            <Array as="points">
              <mxPoint x="90" y="40" />
              <mxPoint x="-1084" y="40" />
            </Array>
          </mxGeometry>
        </mxCell>
        <mxCell id="edge1" value="" style="html=1;rounded=1;edgeStyle=orthogonalEdgeStyle;dashed=0;startArrow=diamondThinstartSize=12;endArrow=openThin;endSize=12;strokeColor=#595959;" parent="1" source="node3" target="node4" edge="1">
          <mxGeometry width="50" height="50" relative="1" as="geometry">
            <Array as="points">
              <mxPoint x="190" y="-70" />
            </Array>
            <mxPoint x="-220" y="-70" as="targetPoint" />
          </mxGeometry>
        </mxCell>
        <mxCell id="label11" value="scheduleLibrary" style="edgeLabel;resizable=0;html=1;align=left;verticalAlign=top;strokeColor=default;" parent="edge1" vertex="1" connectable="0">
          <mxGeometry x="-1652" y="160" as="geometry" />
        </mxCell>
        <mxCell id="edge0" value="" style="html=1;rounded=1;edgeStyle=orthogonalEdgeStyle;dashed=1;startArrow=none;endArrow=openThin;endSize=12;strokeColor=#595959;" parent="1" source="node3" target="node5" edge="1">
          <mxGeometry width="50" height="50" relative="1" as="geometry">
            <Array as="points">
              <mxPoint x="-30" y="810" />
              <mxPoint x="-30" y="810" />
            </Array>
            <mxPoint x="280" y="50" as="sourcePoint" />
          </mxGeometry>
        </mxCell>
        <mxCell id="edge3" value="" style="html=1;rounded=1;edgeStyle=orthogonalEdgeStyle;dashed=1;startArrow=none;endArrow=openThin;endSize=12;strokeColor=#595959;exitX=0.5;exitY=1;exitDx=0;exitDy=0;entryX=1;entryY=0.25;entryDx=0;entryDy=0;" parent="1" source="node3" target="node0" edge="1">
          <mxGeometry width="50" height="50" relative="1" as="geometry">
            <Array as="points">
              <mxPoint x="170" y="895" />
              <mxPoint x="170" y="1740" />
            </Array>
          </mxGeometry>
        </mxCell>
        <mxCell id="edge15" value="" style="html=1;rounded=1;edgeStyle=orthogonalEdgeStyle;dashed=0;startArrow=diamondThinstartSize=12;endArrow=openThin;endSize=12;strokeColor=#595959;exitX=0.500;exitY=0.000;exitDx=0;exitDy=0;entryX=0.500;entryY=0.000;entryDx=0;entryDy=0;" parent="1" source="node1" target="node8" edge="1">
          <mxGeometry width="50" height="50" relative="1" as="geometry">
            <Array as="points">
              <mxPoint x="685" y="-320" />
              <mxPoint x="-2115" y="-320" />
            </Array>
          </mxGeometry>
        </mxCell>
        <mxCell id="edge6" value="" style="html=1;rounded=1;edgeStyle=orthogonalEdgeStyle;dashed=0;startArrow=diamondThinstartSize=12;endArrow=openThin;endSize=12;strokeColor=#595959;movable=1;resizable=1;rotatable=1;deletable=1;editable=1;locked=0;connectable=1;" parent="1" source="node1" target="node4" edge="1">
          <mxGeometry width="50" height="50" relative="1" as="geometry">
            <Array as="points">
              <mxPoint x="550" y="-114" />
            </Array>
          </mxGeometry>
        </mxCell>
        <mxCell id="label36" value="1" style="edgeLabel;resizable=0;html=1;align=left;verticalAlign=top;strokeColor=default;" parent="edge6" vertex="1" connectable="0">
          <mxGeometry x="-1631" y="323" as="geometry" />
        </mxCell>
        <mxCell id="edge10" value="" style="html=1;rounded=1;edgeStyle=orthogonalEdgeStyle;dashed=1;startArrow=none;endArrow=openThin;endSize=12;strokeColor=#595959;exitX=0;exitY=0.25;exitDx=0;exitDy=0;entryX=1;entryY=0.25;entryDx=0;entryDy=0;" parent="1" source="node2" target="node7" edge="1">
          <mxGeometry width="50" height="50" relative="1" as="geometry">
            <Array as="points">
              <mxPoint x="-840" y="155" />
              <mxPoint x="-840" y="299" />
            </Array>
          </mxGeometry>
        </mxCell>
        <mxCell id="edge11" value="" style="html=1;rounded=1;edgeStyle=orthogonalEdgeStyle;dashed=0;startArrow=diamondThinstartSize=12;endArrow=openThin;endSize=12;strokeColor=#595959;exitX=0.001;exitY=0.859;exitDx=0;exitDy=0;entryX=1;entryY=0.75;entryDx=0;entryDy=0;exitPerimeter=0;" parent="1" source="node2" target="node7" edge="1">
          <mxGeometry width="50" height="50" relative="1" as="geometry">
            <Array as="points">
              <mxPoint x="-787" y="392" />
              <mxPoint x="-820" y="392" />
            </Array>
          </mxGeometry>
        </mxCell>
        <mxCell id="edge2" value="" style="html=1;rounded=1;edgeStyle=orthogonalEdgeStyle;dashed=0;startArrow=diamondThin;endArrow=openThin;endSize=12;strokeColor=#595959;exitX=0.5;exitY=1;exitDx=0;exitDy=0;startFill=1;startSize=12;" parent="1" source="node2" target="node5" edge="1">
          <mxGeometry width="50" height="50" relative="1" as="geometry">
            <Array as="points">
              <mxPoint x="-522" y="520" />
              <mxPoint x="-522" y="520" />
            </Array>
          </mxGeometry>
        </mxCell>
        <mxCell id="edge18" value="" style="html=1;rounded=1;edgeStyle=orthogonalEdgeStyle;dashed=0;startArrow=diamondThinstartSize=12;endArrow=openThin;endSize=12;strokeColor=#595959;exitX=0.25;exitY=1;exitDx=0;exitDy=0;movable=1;resizable=1;rotatable=1;deletable=1;editable=1;locked=0;connectable=1;" parent="1" source="node2" target="node9" edge="1">
          <mxGeometry width="50" height="50" relative="1" as="geometry">
            <Array as="points">
              <mxPoint x="-655" y="540" />
              <mxPoint x="-990" y="540" />
            </Array>
          </mxGeometry>
        </mxCell>
        <mxCell id="edge12" value="" style="html=1;rounded=1;edgeStyle=orthogonalEdgeStyle;dashed=0;startArrow=diamondThinstartSize=12;endArrow=openThin;endSize=12;strokeColor=#595959;exitX=1;exitY=0.5;exitDx=0;exitDy=0;entryX=0;entryY=0.75;entryDx=0;entryDy=0;" parent="1" source="node7" target="node2" edge="1">
          <mxGeometry width="50" height="50" relative="1" as="geometry">
            <Array as="points">
              <mxPoint x="-893" y="344" />
              <mxPoint x="-870" y="344" />
            </Array>
          </mxGeometry>
        </mxCell>
        <mxCell id="edge17" value="" style="html=1;rounded=1;edgeStyle=orthogonalEdgeStyle;dashed=1;startArrow=none;endArrow=openThin;endSize=12;strokeColor=#595959;exitX=-0.002;exitY=0.97;exitDx=0;exitDy=0;entryX=1;entryY=0.75;entryDx=0;entryDy=0;exitPerimeter=0;" parent="1" source="node5" target="node9" edge="1">
          <mxGeometry width="50" height="50" relative="1" as="geometry">
            <Array as="points">
              <mxPoint x="-681" y="1420" />
              <mxPoint x="-820" y="1420" />
              <mxPoint x="-820" y="1381" />
            </Array>
          </mxGeometry>
        </mxCell>
        <mxCell id="edge19" value="" style="html=1;rounded=1;edgeStyle=orthogonalEdgeStyle;dashed=0;startArrow=diamondThinstartSize=12;endArrow=openThin;endSize=12;strokeColor=#595959;exitX=-0.004;exitY=0.855;exitDx=0;exitDy=0;entryX=1.000;entryY=0.500;entryDx=0;entryDy=0;exitPerimeter=0;" parent="1" source="node5" target="node9" edge="1">
          <mxGeometry width="50" height="50" relative="1" as="geometry">
            <Array as="points">
              <mxPoint x="-720" y="1317" />
              <mxPoint x="-720" y="1317" />
            </Array>
          </mxGeometry>
        </mxCell>
        <mxCell id="edge4" value="" style="html=1;rounded=1;edgeStyle=orthogonalEdgeStyle;dashed=0;startArrow=diamondThin;endArrow=openThin;endSize=12;strokeColor=#595959;entryX=0.5;entryY=0;entryDx=0;entryDy=0;startFill=1;startSize=12;" parent="1" source="node5" target="node0" edge="1">
          <mxGeometry width="50" height="50" relative="1" as="geometry">
            <Array as="points">
              <mxPoint x="-390" y="1480" />
              <mxPoint x="-390" y="1480" />
            </Array>
          </mxGeometry>
        </mxCell>
        <mxCell id="edge7" value="" style="html=1;rounded=1;edgeStyle=orthogonalEdgeStyle;dashed=1;startArrow=none;endArrow=openThin;endSize=12;strokeColor=#595959;exitX=0.500;exitY=1.000;exitDx=0;exitDy=0;entryX=0.212;entryY=0.000;entryDx=0;entryDy=0;" parent="1" source="node5" target="node0" edge="1">
          <mxGeometry width="50" height="50" relative="1" as="geometry">
            <Array as="points" />
          </mxGeometry>
        </mxCell>
        <mxCell id="edge20" value="" style="html=1;rounded=1;edgeStyle=orthogonalEdgeStyle;dashed=0;startArrow=diamondThinstartSize=12;endArrow=openThin;endSize=12;strokeColor=#595959;exitX=0.500;exitY=1.000;exitDx=0;exitDy=0;entryX=0.25;entryY=1;entryDx=0;entryDy=0;" parent="1" source="node9" target="node5" edge="1">
          <mxGeometry width="50" height="50" relative="1" as="geometry">
            <Array as="points">
              <mxPoint x="-1085" y="1473" />
              <mxPoint x="-574" y="1473" />
            </Array>
          </mxGeometry>
        </mxCell>
        <mxCell id="edge22" value="" style="html=1;rounded=1;edgeStyle=orthogonalEdgeStyle;dashed=0;startArrow=diamondThinstartSize=12;endArrow=openThin;endSize=12;strokeColor=#595959;exitX=0.444;exitY=1.000;exitDx=0;exitDy=0;entryX=0.543;entryY=1.000;entryDx=0;entryDy=0;" parent="1" source="node0" target="node10" edge="1">
          <mxGeometry width="50" height="50" relative="1" as="geometry">
            <Array as="points">
              <mxPoint x="-406" y="2250" />
              <mxPoint x="-1051" y="2250" />
            </Array>
          </mxGeometry>
        </mxCell>
        <mxCell id="edge23" value="" style="html=1;rounded=1;edgeStyle=orthogonalEdgeStyle;dashed=1;startArrow=none;endArrow=openThin;endSize=12;strokeColor=#595959;exitX=0.75;exitY=1;exitDx=0;exitDy=0;entryX=0.25;entryY=1;entryDx=0;entryDy=0;movable=1;resizable=1;rotatable=1;deletable=1;editable=1;locked=0;connectable=1;" parent="1" source="node0" target="node10" edge="1">
          <mxGeometry width="50" height="50" relative="1" as="geometry">
            <Array as="points">
              <mxPoint x="-323" y="2270" />
              <mxPoint x="-1152" y="2270" />
            </Array>
          </mxGeometry>
        </mxCell>
        <mxCell id="edge21" value="" style="html=1;rounded=1;edgeStyle=orthogonalEdgeStyle;dashed=0;startArrow=diamondThinstartSize=12;endArrow=openThin;endSize=12;strokeColor=#595959;exitX=1;exitY=0.5;exitDx=0;exitDy=0;entryX=0;entryY=0.75;entryDx=0;entryDy=0;" parent="1" source="node10" target="node0" edge="1">
          <mxGeometry width="50" height="50" relative="1" as="geometry">
            <Array as="points">
              <mxPoint x="-780" y="2109" />
              <mxPoint x="-780" y="2039" />
            </Array>
          </mxGeometry>
        </mxCell>
      </root>
    </mxGraphModel>
  </diagram>
</mxfile>
